<?xml version="1.0" standalone="no"?><!DOCTYPE svg PUBLIC "-//W3C//DTD SVG 1.1//EN" "http://www.w3.org/Graphics/SVG/1.1/DTD/svg11.dtd"><svg t="1638094131865" class="icon" viewBox="0 0 1024 1024" version="1.1" xmlns="http://www.w3.org/2000/svg" p-id="6225" xmlns:xlink="http://www.w3.org/1999/xlink" width="200" height="200"><defs><style type="text/css"></style></defs><path d="M512 512m-512 0a512 512 0 1 0 1024 0 512 512 0 1 0-1024 0Z" fill="#3AA0C8" p-id="6226"></path><path d="M282.486192 282.884481m26.087904 0l155.929988 0q26.087904 0 26.087904 26.087903l0 155.929989q0 26.087904-26.087904 26.087903l-155.929988 0q-26.087904 0-26.087904-26.087903l0-155.929989q0-26.087904 26.087904-26.087903Z" fill="#F5F9FD" p-id="6227"></path><path d="M282.486192 533.109296m26.087904 0l155.929988 0q26.087904 0 26.087904 26.087904l0 155.929988q0 26.087904-26.087904 26.087903l-155.929988 0q-26.087904 0-26.087904-26.087903l0-155.929988q0-26.087904 26.087904-26.087904Z" fill="#EBF2FA" p-id="6228"></path><path d="M533.408012 533.109296m26.087904 0l155.929988 0q26.087904 0 26.087904 26.087904l0 155.929988q0 26.087904-26.087904 26.087903l-155.929988 0q-26.087904 0-26.087904-26.087903l0-155.929988q0-26.087904 26.087904-26.087904Z" fill="#EBF2FA" p-id="6229"></path><path d="M533.408012 282.884481m26.087904 0l155.929988 0q26.087904 0 26.087904 26.087903l0 155.929989q0 26.087904-26.087904 26.087903l-155.929988 0q-26.087904 0-26.087904-26.087903l0-155.929989q0-26.087904 26.087904-26.087903Z" fill="#FFFFFF" p-id="6230"></path></svg>