<?xml version="1.0" standalone="no"?><!DOCTYPE svg PUBLIC "-//W3C//DTD SVG 1.1//EN" "http://www.w3.org/Graphics/SVG/1.1/DTD/svg11.dtd"><svg t="1644416518690" class="icon" viewBox="0 0 1024 1024" version="1.1" xmlns="http://www.w3.org/2000/svg" p-id="16943" xmlns:xlink="http://www.w3.org/1999/xlink" width="200" height="200"><defs><style type="text/css"></style></defs><path d="M78.9376 106.7392m76.8 0l217.6 0q76.8 0 76.8 76.8l0 217.6q0 76.8-76.8 76.8l-217.6 0q-76.8 0-76.8-76.8l0-217.6q0-76.8 76.8-76.8Z" fill="#1989FA" fill-opacity=".3" p-id="16944"></path><path d="M541.8624 76.8m204.8 0l0 0q204.8 0 204.8 204.8l0 0q0 204.8-204.8 204.8l0 0q-204.8 0-204.8-204.8l0 0q0-204.8 204.8-204.8Z" fill="#1989FA" p-id="16945"></path><path d="M571.7376 585.7664m76.8 0l217.6 0q76.8 0 76.8 76.8l0 217.6q0 76.8-76.8 76.8l-217.6 0q-76.8 0-76.8-76.8l0-217.6q0-76.8 76.8-76.8Z" fill="#1989FA" fill-opacity=".3" p-id="16946"></path><path d="M307.2512 612.0192l159.7568 267.4048A44.8 44.8 0 0 1 428.5568 947.2H109.0432a44.8 44.8 0 0 1-38.464-67.776l159.7568-267.4048a44.8 44.8 0 0 1 76.928 0z" fill="#1989FA" p-id="16947"></path></svg>