<?xml version="1.0" standalone="no"?><!DOCTYPE svg PUBLIC "-//W3C//DTD SVG 1.1//EN" "http://www.w3.org/Graphics/SVG/1.1/DTD/svg11.dtd"><svg t="1638094796373" class="icon" viewBox="0 0 1024 1024" version="1.1" xmlns="http://www.w3.org/2000/svg" p-id="12989" xmlns:xlink="http://www.w3.org/1999/xlink" width="200" height="200"><defs><style type="text/css"></style></defs><path d="M514.027102 508.363755m-501.55102 0a501.55102 501.55102 0 1 0 1003.10204 0 501.55102 501.55102 0 1 0-1003.10204 0Z" fill="#1677FF" p-id="12990"></path><path d="M760.058776 373.906286c2.173388 0 4.012408 1.462857 4.576653 3.489959l0.167183 1.253877v385.149388c0 19.497796-15.004735 35.463837-34.105469 37.031184l-3.030204 0.10449H300.387265a37.135673 37.135673 0 0 1-37.010285-34.063674l-0.125388-3.051102V378.67102c0-2.194286 1.462857-4.054204 3.489959-4.597551l1.253878-0.167183H760.058776z m-139.661062 68.921469H407.635592a4.764735 4.764735 0 0 0-4.597551 3.489959l-0.146286 1.253878v38.034286c0 2.194286 1.462857 4.033306 3.469061 4.597551l1.274776 0.167183h212.762122c2.194286 0 4.033306-1.483755 4.597551-3.489959l0.167184-1.253877v-38.034286a4.743837 4.743837 0 0 0-4.764735-4.764735z m102.483592-153.913469c2.633143 0 4.764735 2.131592 4.764735 4.743836v49.904327a4.743837 4.743837 0 0 1-4.764735 4.764735h-417.750204a4.743837 4.743837 0 0 1-4.743837-4.764735v-49.904327c0-2.612245 2.131592-4.743837 4.764735-4.743836h417.750204z m0-73.121959c2.633143 0 4.764735 2.131592 4.764735 4.764734v38.034286a4.743837 4.743837 0 0 1-4.764735 4.743837h-417.750204a4.743837 4.743837 0 0 1-4.743837-4.764735v-38.034286c0-2.612245 2.131592-4.743837 4.764735-4.743836h417.750204z" fill="#FFFFFF" p-id="12991"></path></svg>