<?xml version="1.0" standalone="no"?><!DOCTYPE svg PUBLIC "-//W3C//DTD SVG 1.1//EN" "http://www.w3.org/Graphics/SVG/1.1/DTD/svg11.dtd"><svg t="1644414945222" class="icon" viewBox="0 0 1024 1024" version="1.1" xmlns="http://www.w3.org/2000/svg" p-id="6823" xmlns:xlink="http://www.w3.org/1999/xlink" width="200" height="200"><defs><style type="text/css"></style></defs><path d="M481.1 190c30.3 0 58.8 11.8 80.3 33.3 21.4 21.4 33.3 50 33.3 80.3v15c0 30.3-11.8 58.8-33.3 80.3-21.4 21.4-50 33.3-80.3 33.3-30.3 0-58.8-11.8-80.3-33.3-21.4-21.4-33.3-50-33.3-80.3v-15c0-30.3 11.8-58.8 33.3-80.3 21.5-21.5 50-33.3 80.3-33.3m0-60c-95.8 0-173.5 77.7-173.5 173.5v15c0 95.8 77.7 173.5 173.5 173.5s173.5-77.7 173.5-173.5v-15C654.7 207.6 577 130 481.1 130z" fill="#3FA9F5" p-id="6824"></path><path d="M515.2 516.3c48.3 0 93.8 18.8 127.9 53 34.2 34.2 53 79.6 53 127.9 0 40.1-32.6 72.7-72.7 72.7H338.8c-40.1 0-72.7-32.6-72.7-72.7 0-48.3 18.8-93.8 53-127.9 34.2-34.2 79.6-53 127.9-53h68.2m0-60h-68.1c-133.1 0-240.9 107.9-240.9 240.9 0 73.3 59.4 132.7 132.7 132.7h284.7c73.3 0 132.7-59.4 132.7-132.7-0.2-133-108-240.9-241.1-240.9z" fill="#3FA9F5" p-id="6825"></path></svg>