<?xml version="1.0" standalone="no"?><!DOCTYPE svg PUBLIC "-//W3C//DTD SVG 1.1//EN" "http://www.w3.org/Graphics/SVG/1.1/DTD/svg11.dtd"><svg t="1638094760158" class="icon" viewBox="0 0 1241 1024" version="1.1" xmlns="http://www.w3.org/2000/svg" p-id="12410" xmlns:xlink="http://www.w3.org/1999/xlink" width="242.3828125" height="200"><defs><style type="text/css"></style></defs><path d="M193.84646453 62h872.72727276c60.00000029 0 109.09090898 49.09090869 109.09090899 109.09090898v681.81818204c0 60.00000029-49.09090869 109.09090898-109.09090899 109.09090898H193.84646453c-60.00000029 0-109.09090898-49.09090869-109.09090898-109.09090898V171.09090898c0-60.00000029 49.09090869-109.09090898 109.09090898-109.09090898z" fill="#2F77F1" p-id="12411"></path><path d="M84.75555555 225.63636348h1090.90909072v54.54545449H84.75555555v-54.5454545z m673.63636377 340.90909101c9.5454545 5.4545458 15.00000029 16.36363653 15.0000003 27.27272725s-5.4545458 21.81818145-15.0000003 27.27272724L589.30101004 726.09090928c-9.5454545 5.4545458-21.81818145 5.4545458-31.36363594-1e-8-9.5454545-5.4545458-16.36363653-16.36363653-15.00000029-27.27272724V490.18181855c0-10.90909073 5.4545458-21.81818145 15.00000029-27.27272724 9.5454545-5.4545458 21.81818145-5.4545458 31.36363594 0L758.39191932 566.54545449z" fill="#AFFCFE" p-id="12412"></path></svg>